<svg width="120" height="127" viewBox="0 0 120 127" fill="none" xmlns="http://www.w3.org/2000/svg">
<g clip-path="url(#clip0_61_164)">
<path d="M120 5.86007L117.36 20.8601C117.153 22.0149 116.547 23.0603 115.648 23.8135C114.748 24.5667 113.613 24.9796 112.44 24.9801H45.7797C44.6037 24.9814 43.4657 25.3971 42.5659 26.1543C41.6661 26.9115 41.0619 27.9616 40.8597 29.1201L37.9997 45.8401C37.7994 47.0159 37.1854 48.0813 36.2685 48.8442C35.3517 49.607 34.1923 50.017 32.9997 50.0001H18.1597C17.4287 49.9998 16.7067 49.8392 16.0445 49.5297C15.3823 49.2202 14.796 48.7693 14.3269 48.2087C13.8579 47.6481 13.5174 46.9914 13.3296 46.285C13.1417 45.5786 13.111 44.8396 13.2397 44.1201L16.5997 24.9801L20.2797 4.12007C20.4861 2.96526 21.0921 1.91981 21.9915 1.16664C22.8909 0.413464 24.0265 0.000526248 25.1997 6.85176e-05H115C115.735 -0.0109108 116.464 0.140604 117.135 0.443803C117.805 0.747002 118.4 1.19441 118.878 1.75412C119.355 2.31382 119.704 2.97202 119.898 3.68176C120.091 4.3915 120.126 5.13529 120 5.86007Z" fill="#222326"/>
<path d="M81.1999 50.3201H41.3799C40.2068 50.3206 39.0712 50.7335 38.1717 51.4867C37.2723 52.2398 36.6664 53.2853 36.4599 54.4401L33.2199 72.8201C33.1168 73.3814 32.8447 73.8978 32.4399 74.3001C32.1782 74.5634 31.8664 74.7716 31.5229 74.9124C31.1794 75.0533 30.8111 75.1239 30.4399 75.1201H11.9999C10.8257 75.1166 9.68806 75.5281 8.78782 76.282C7.88758 77.0358 7.28267 78.0835 7.07991 79.2401L3.41991 100.1L-9.43542e-05 119.06C-0.126726 119.785 -0.0918435 120.529 0.102064 121.238C0.295972 121.948 0.644126 122.606 1.12169 123.166C1.59925 123.726 2.19445 124.173 2.86483 124.476C3.5352 124.78 4.26423 124.931 4.99991 124.92H19.8399C21.013 124.92 22.1486 124.507 23.0481 123.754C23.9475 123 24.5534 121.955 24.7599 120.8L28.3999 100.1L32.3999 77.4001C32.503 76.8388 32.7752 76.3224 33.1799 75.9201C33.4426 75.6595 33.7551 75.4544 34.0986 75.3169C34.4422 75.1795 34.8099 75.1126 35.1799 75.1201H78.5799C79.757 75.1228 80.897 74.7084 81.7976 73.9506C82.6983 73.1927 83.3014 72.1403 83.4999 70.9801L86.1199 56.1801C86.2489 55.4615 86.2184 54.7234 86.0304 54.0179C85.8425 53.3125 85.5017 52.657 85.0323 52.0979C84.5628 51.5388 83.9762 51.0897 83.3139 50.7825C82.6517 50.4753 81.93 50.3174 81.1999 50.3201Z" fill="#222326"/>
</g>
<defs>
<clipPath id="clip0_61_164">
<rect width="120" height="126.92" fill="white"/>
</clipPath>
</defs>
</svg>
